<svg width="986" height="983" viewBox="0 0 986 983" fill="none" xmlns="http://www.w3.org/2000/svg">
<path d="M826.267 3.59988C824.267 5.73321 816.667 15.1999 809.333 24.5332C802 33.9999 794.667 42.5332 793.067 43.5999C789.467 45.9999 788.933 45.7332 766.667 36.2666C747.333 27.9999 731.2 22.6665 725.733 22.6665C721.333 22.6665 718.533 26.7999 720.533 30.3999C722 33.0666 742 52.5332 756.4 65.1999C761.6 69.8666 766 74.3999 766 75.1999C766 75.9999 759.867 79.8666 752.267 83.8666C733.067 93.9999 726.533 98.5332 723.867 103.467C720.933 108.8 722.667 111.467 729.467 112.8C733.467 113.6 750 112.133 763.733 109.867L768.667 108.933V131.467C768.667 159.733 770.8 168.533 776.667 165.333C777.867 164.667 783.6 155.067 789.467 143.867C795.2 132.8 800.667 123.467 801.6 123.067C802.4 122.8 814.667 129.067 828.8 137.2C842.933 145.333 855.867 152 857.6 152C864.533 152 861.333 146.267 841.867 124.533C831.6 112.933 823.733 103.2 824.533 102.933C825.2 102.667 841.333 107.6 860.267 113.733C902.267 127.6 909.333 129.333 912.133 126.4C913.733 124.8 913.867 123.733 912.8 121.6C911.333 118.8 887.6 102.267 868.4 90.7999C861.867 86.9332 856.667 83.4666 856.667 82.9332C856.667 82.3999 860.133 80.5332 864.4 78.7999C892.267 67.0666 898.4 62.6666 895.067 56.7999C892 51.4666 885.333 50.2666 856.933 49.9999C842.133 49.8666 829.6 49.3332 829.2 48.9332C828.667 48.5332 829.733 41.3332 831.333 33.0666C832.933 24.7999 834.667 14.6665 834.933 10.5332C835.6 3.73321 835.333 2.79988 832.8 1.46654C830.267 0.133211 829.467 0.399877 826.267 3.59988ZM827.333 17.1999C827.333 17.7332 826.133 24.3999 824.533 31.7332C821.2 48.5332 821.467 53.4666 826 55.4666C828 56.3999 840.667 57.3332 856.533 57.7332C872.667 58.1332 884.267 59.0666 885.067 59.8666C886.667 61.4666 868.8 70.2666 854.4 74.7999C845.333 77.7332 842 79.4666 842 81.3332C842 81.8666 853.2 89.4666 866.933 98.1332C897.067 117.333 894.8 115.733 893.867 116.533C893.067 117.333 877.733 112.667 843.467 101.467C817.733 92.9332 813.067 91.9999 811.733 95.4666C810.533 98.7999 812.933 102.4 828.133 119.2C836 128 841.867 135.333 841.067 135.6C840.267 135.867 831.467 131.2 821.333 125.333C801.2 113.333 798.8 112.8 794.267 120.267C792.8 122.667 788.533 130.8 784.8 138.267C780.933 145.867 777.333 152 776.533 152C775.867 152 775.333 142.267 775.333 128.133C775.333 108.933 774.933 104 773.333 102.667C771.867 101.467 768.133 101.6 755.733 103.333C747.067 104.533 737.867 105.333 735.333 105.067L730.667 104.667L735.867 101.333C738.8 99.4666 748.4 94.1332 757.2 89.3332C771.467 81.7332 773.333 80.2666 773.733 76.9332C774.267 72.6666 770.533 68.6666 743.467 43.9999C735.867 37.0666 730.267 31.1999 730.933 31.0666C732.4 30.5332 752.667 37.7332 772.8 45.9999C788.667 52.5332 791.333 52.7999 798.133 47.8666C801.067 45.7332 818.4 25.7332 824 17.8665C825.467 15.7332 827.333 15.3332 827.333 17.1999Z" fill="white"/>
<path d="M498 42.2666C471.734 45.0666 434.534 54.6666 405.6 66.1333C336.667 93.6 276 135.867 246.4 177.2C246.267 177.467 242.667 174.8 238.533 171.2C228.267 162.267 221.733 157.6 217.733 156.667C212.8 155.467 209.067 160.8 208 170.4C205.333 195.733 204 205.2 199.067 234.667C193.067 271.6 192.933 280.133 198.133 284.4C202.8 288.133 209.067 286.933 228.667 278.667C251.067 269.067 275.333 261.067 303.333 253.733C329.067 247.067 330.667 246.533 332.667 242.533C334.934 238.533 331.867 234.933 318.4 225.2C302.533 214 298 209.6 298 205.467C298 201.733 310 189.6 331.467 171.333C362.667 145.067 408.667 117.733 443.334 104.933C460.4 98.6666 490.4 91.3333 514 87.8666C550.8 82.2666 592.934 84.1333 618 92.1333C644.134 100.667 668.267 119.733 676.267 138.133C677.734 141.733 678.534 147.333 678.534 156C678.667 167.467 678.934 168.667 681.2 168.667C687.2 168.667 690.8 140 686.8 124C676 81.2 632.534 52.1333 566.267 43.3333C552.534 41.4666 511.2 40.8 498 42.2666ZM576.667 54.4C623.067 62.8 659.2 84.1333 672.667 111.2C678.4 122.667 677.6 123.867 669.867 115.467C652.534 96.5333 630.534 85.0666 600 79.0666C581.6 75.4666 535.6 75.8666 510.267 79.7333C486.134 83.4666 454.4 91.6 438 98C408.934 109.467 372.667 130 344.934 150.8C328 163.467 296 192.267 292.533 197.867C286.4 207.867 290.8 215.2 311.333 229.2C323.2 237.333 325.6 239.6 324.267 240.933C323.867 241.2 314.533 243.867 303.467 246.8C275.867 253.867 252.8 261.6 230.667 270.933C220 275.467 209.733 278.933 206.667 279.067L201.333 279.333L200.933 272.933C200.667 269.467 202.667 254.133 205.2 238.933C207.733 223.733 211.067 201.467 212.667 189.333C215.6 165.867 216 164 217.733 164C218.267 164 224.8 168.533 232 174C239.333 179.467 246.4 184 247.867 184C249.467 184 256.933 177.2 267.2 166.533C284.8 148.133 295.2 139.067 314 125.867C372.4 84.8 436.4 59.2 500.667 51.4666C503.2 51.2 518 51.0666 533.334 51.3333C554.4 51.6 565.067 52.4 576.667 54.4Z" fill="white"/>
<path d="M942.134 106.533C929.067 119.867 924.667 141.467 931.334 159.067C936.8 173.733 954.134 196 960 196C962.934 196 962.4 194.4 957.6 188.533C943.734 172.133 936.4 156.8 935.6 142.4C935.067 132.8 935.334 131.333 939.2 123.467C941.467 118.933 945.334 112.4 948 109.2C956.667 98.2667 952.134 96.2667 942.134 106.533Z" fill="white"/>
<path d="M963.2 131.067C957.067 138.667 956.267 141.2 956.933 150.8C957.467 157.467 958.667 161.6 961.6 166.8C968.933 179.867 973.2 179.333 968.8 166C965.2 154.933 965.2 143.867 968.667 136.133C970.133 132.933 971.333 129.6 971.333 128.533C971.333 125.2 966.8 126.533 963.2 131.067Z" fill="white"/>
<path d="M32.8 171.067C23.3334 186.533 18.8 203.467 18.8 224.667C18.8 243.733 20.9334 253.067 28.9334 269.333C33.4667 278.667 36.6667 282.933 47.6001 293.867C60.1334 306.4 60.9334 307.467 62.2667 314.533C67.2001 342 96.2667 371.6 136.667 390.533C173.2 407.6 232.533 421.467 271.067 421.867C284.267 422 287.6 421.6 288.667 420C290.533 416.933 288.267 416.4 268 414.667C220.533 410.933 173.2 399.2 138.533 382.667C111.867 370.133 89.8667 352.4 78.2667 334.267C73.7334 326.933 68.1334 313.467 69.2001 312.267C69.6001 311.867 74.2667 312.933 79.6001 314.533C91.0667 317.867 97.7334 318 106.8 315.333C116.267 312.533 122.133 306.133 123.067 297.467C123.867 288.667 122.8 285.067 117.867 279.467C112.267 273.067 104.267 270.267 93.7334 270.933C79.7334 271.867 69.8667 278.533 65.0667 290.133C63.7334 293.333 61.8667 296 60.8001 296C58.1334 296 44.0001 280.8 38.8 272.133C23.4667 247.067 21.8667 211.6 34.5334 180.533C37.2 174.133 38.9334 168.4 38.5334 167.867C37.2 165.733 35.6 166.667 32.8 171.067ZM103.6 278.667C109.867 280.533 116.667 288.133 116.667 293.467C116.667 303.867 108.4 310 94.0001 309.867C82.0001 309.867 70.0001 304.533 70.0001 299.2C70.0001 292.533 76.2667 284.133 83.7334 280.533C91.3334 277.067 96.0001 276.667 103.6 278.667Z" fill="white"/>
<path d="M789.467 183.333C776.8 187.867 759.733 203.6 756.133 214C750.933 228.8 750.933 229.867 753.6 236.133C758.933 248.267 773.333 257.2 788.8 258.4C800.267 259.2 808.533 255.867 811.733 248.933C812.933 246.4 814 243.467 814 242.4C813.867 238.4 808.4 229.067 802.667 222.8L796.533 216.267L802.533 208C807.333 201.467 808.667 198.533 808.667 194.4C808.667 187.467 806.933 184.533 801.867 182.8C796.533 180.933 795.867 181.067 789.467 183.333ZM798 194.533C798 196 795.6 200 792.667 203.333C782.8 214.8 782.667 216.8 792.533 227.333C804.133 239.6 805.467 244.133 798.4 246.8C789.333 250.267 775.2 245.333 765.067 235.2L758 228.267L760 222.8C762.533 215.333 767.467 209.2 775.733 202.933C788.933 192.8 798 189.467 798 194.533Z" fill="white"/>
<path d="M576.667 185.867C558.667 190.533 546 207.467 546 226.933V236.4L524.4 235.6C486.933 234.267 451.6 226.8 421.6 213.867C412.133 209.867 404 206.8 403.6 207.2C402.267 208.667 408 213.6 416.533 218.267C445.333 234.4 491.067 245.333 532.4 245.867L551.467 246.133L556.4 251.6C574 270.667 605.467 275.467 642.667 264.667C656.8 260.533 676 252.933 697.067 243.2C713.333 235.6 718 232.667 718 230.267C718 228 709.467 230.533 685.867 240.133C629.867 262.667 600.667 266.8 577.333 255.067C570.933 252 563.333 245.867 563.333 243.867C563.333 243.333 564.933 242.533 567.067 242C569.067 241.6 575.6 238.8 581.467 236C592.667 230.8 601.467 223.467 605.333 216C608.4 210.133 608.4 200.133 605.333 195.067C600.533 186.933 588.133 182.933 576.667 185.867ZM593.733 198.133C597.2 200.533 597.6 206.267 594.667 212C590.533 220.133 573.867 230.267 560.4 232.933C557.333 233.467 556.667 233.067 555.867 230.133C553.6 220.933 561.067 206.267 571.2 199.867C578.133 195.333 588.667 194.533 593.733 198.133Z" fill="white"/>
<path d="M981.334 238.8C980.8 239.6 979.867 244.533 979.2 249.733C975.867 276.4 954.667 297.333 923.067 305.2C911.6 308 909.6 308.933 910.8 310.933C912.134 312.933 925.867 311.067 938.134 307.2C964.134 298.933 984.534 276 985.734 253.067C986.534 240.533 984.4 233.733 981.334 238.8Z" fill="white"/>
<path d="M951.734 242.933C950.934 243.866 949.334 246.933 948.134 249.866C944.8 258 937.067 267.6 928.534 274.133C924.267 277.466 920.667 280.666 920.667 281.466C920.667 284 928.134 282.533 934.8 278.8C946.8 271.866 954.8 260 955.6 248.133C956 242.133 954.267 239.866 951.734 242.933Z" fill="white"/>
<path d="M312.667 284C312.667 290.667 328.133 305.333 343.2 313.2C356.933 320.267 368.533 324.267 384.667 327.333C396.667 329.6 397.733 330.133 404.4 336.267C416.267 347.467 437.6 355.467 463.333 358.667C469.467 359.333 485.6 360 499.067 360H523.6L520 364.8C515.333 370.933 514.133 379.867 517.2 384.667C524.933 396.4 546.8 393.2 567.733 377.333C577.333 370.133 582 363.333 582 356.533C582 351.733 581.2 350.533 568.267 338C552.533 322.667 543.067 317.067 531.333 316.267C524.8 315.733 523.333 316.133 519.6 319.333C515.867 322.4 515.333 323.733 515.333 329.333C515.333 332.933 516.533 338.533 518 342C519.467 345.467 520.667 348.8 520.667 349.467C520.667 351.467 473.467 350.933 459.333 348.667C444.133 346.4 425.6 340 417.733 334.4C411.467 329.733 410.933 330.533 423.6 326C436.8 321.467 444.667 313.067 444.667 303.867C444.667 292.133 430.267 284.267 415.067 287.867C403.067 290.533 395.2 299.067 393.6 311.067C393.2 313.867 392.667 316.533 392.267 316.933C390.933 318.133 364.4 311.867 353.733 307.867C342.4 303.467 326.133 293.333 320.133 286.8C316.133 282.667 312.667 281.333 312.667 284ZM430.133 300C438.8 304.667 423.467 317.333 409.067 317.333C404.933 317.333 404.667 317.067 404.667 312.933C404.8 307.6 407.333 302.8 411.467 300.533C415.333 298.4 426.533 298.133 430.133 300ZM541.333 329.2C550.133 333.467 572.667 353.467 572.667 357.067C572.667 360.533 559.733 371.6 550.267 376.267C540.133 381.333 529.333 382.267 526.933 378.4C525.733 376.667 526.667 374.267 531.733 366.8C535.2 361.6 538 356.533 538 355.467C538 354.4 535.867 350.933 533.2 347.733C526.133 339.333 522.533 329.2 525.6 326.267C527.467 324.267 533.733 325.467 541.333 329.2Z" fill="white"/>
<path d="M860.533 287.867C853.733 294.667 855.733 307.333 864 311.333C870.933 314.533 875.067 313.867 880.133 308.8C883.733 305.2 884.667 303.2 884.667 299.067C884.667 290 878.933 284.133 870.267 284C865.6 284 863.733 284.8 860.533 287.867ZM875.333 294.533C878.533 300.667 876.133 306.667 870.533 306.667C867.333 306.667 863.333 302.267 863.333 298.8C863.333 293.067 872.667 289.733 875.333 294.533Z" fill="white"/>
<path d="M700.667 295.333C698 298.533 700 302.8 709.6 315.467C716.8 324.933 719.467 327.467 722.533 327.733C726.533 328.267 728.667 326.4 728.667 322.267C728.667 319.733 717.6 302.8 712 296.667C708.4 292.933 703.2 292.267 700.667 295.333Z" fill="white"/>
<path d="M827.467 306.8C811.734 309.467 800.8 317.467 794.534 330.933C791.2 338.267 790.667 340.933 790.667 351.333C790.667 360.533 791.334 365.067 793.734 370.667C799.6 385.333 813.467 398.533 833.334 408C847.067 414.533 854.934 416.933 856.8 415.067C857.867 414 853.467 411.2 841.6 405.333C809.867 389.6 796.267 373.067 796.4 350.133C796.534 331.2 808.4 317.733 829.334 312.533C839.867 310 842.267 308.533 839.334 306.667C837.067 305.2 837.334 305.2 827.467 306.8Z" fill="white"/>
<path d="M653.333 323.333C647.2 329.333 649.733 339.867 659.067 348.267C672.933 360.8 688.667 356.267 684.667 340.933C682.667 333.733 677.2 325.6 672 322.4C666 318.8 657.333 319.2 653.333 323.333Z" fill="white"/>
<path d="M825.2 334.667C816.8 339.333 814 343.6 814 351.067C814 359.333 819.467 369.2 828.8 378C835.6 384.267 842 387.467 842 384.533C842 384 838.8 380.267 834.8 376C826.4 366.933 822 358.4 822 351.6C822 347.467 823.067 345.733 828 341.067C837.467 332.133 835.867 328.533 825.2 334.667Z" fill="white"/>
<path d="M127.333 350.4C127.333 353.867 138.4 364.667 148.933 371.6C162.933 380.667 176.267 385.067 199.067 387.867C209.467 389.2 214 388.667 214 386C214 383.867 209.6 382.133 195.333 378.667C170 372.4 152.533 364.933 138.4 353.867C130.267 347.467 127.333 346.667 127.333 350.4Z" fill="white"/>
<path d="M376.933 365.6C375.333 367.6 372.667 376 368.667 391.467L365.733 402.4L344.267 410.667C319.6 420.133 316.667 421.733 316.667 425.333C316.667 429.6 322.267 432 340.533 435.333C350.133 437.067 358.533 438.8 359.333 439.333C361.067 440.4 361.067 451.467 359.2 470.267C357.467 487.867 358 489.333 366.4 489.333C369.333 489.333 389.867 484.267 411.867 478C434 471.867 456.133 465.867 461.333 464.667C472.4 462.133 476.933 459.467 476.4 456C476.133 454.533 470.4 448.533 463.467 442.4C456.533 436.267 441.867 421.733 430.933 410C397.467 374.267 394.667 371.467 390.133 367.6C385.6 363.733 379.333 362.8 376.933 365.6ZM401.6 390.267C410.267 399.6 423.067 413.2 430 420.4C436.933 427.6 442.8 434.133 443.067 434.8C443.6 436 436.933 433.067 396.933 414.4C379.333 406.133 374 403.067 374.4 401.467C379.6 382.933 382.933 373.333 384.267 373.333C385.067 373.333 392.8 380.933 401.6 390.267ZM413.867 430.267C448.133 447.467 453.467 450.667 445.733 449.733C419.867 446.533 378 437.867 364.667 432.933C359.867 431.2 351.867 428.933 346.667 428C341.6 426.933 336.8 425.733 336.133 425.2C335.467 424.667 340 421.867 346.133 419.2C352.133 416.4 359.6 412.8 362.533 411.2L367.867 408.4L374.533 411.067C378.267 412.667 396 421.2 413.867 430.267ZM381.867 445.333C391.333 447.733 441.333 457.333 445.067 457.333C448.533 457.467 442 459.867 427.333 464C418.933 466.267 402.267 471.467 390.267 475.467C378.4 479.467 368 482.667 367.2 482.667C365.733 482.667 365.867 478 368.133 451.6C368.533 446.667 369.467 442.667 370.267 442.667C370.933 442.667 376.267 443.867 381.867 445.333Z" fill="white"/>
<path d="M735.467 367.867C732.667 373.067 739.733 386.667 746.533 389.333C753.733 392 756.533 383.467 751.2 374.8C745.867 365.867 738.267 362.533 735.467 367.867Z" fill="white"/>
<path d="M636.4 386.667C632.933 390.267 632.4 391.467 633.067 395.6C634 401.2 639.467 407.6 645.6 410.133C648 411.2 653.467 412 657.733 412C664.133 412 666 411.467 668.4 408.933C677.067 399.6 663.067 382.667 646.667 382.667C641.467 382.667 639.733 383.333 636.4 386.667Z" fill="white"/>
<path d="M704.667 399.867C702.8 403.6 702.933 405.2 706.533 412.933C708.8 417.6 711.6 420.933 715.2 423.333C729.6 432.933 731.2 415.2 717.067 402.667C710.4 396.8 706.8 396 704.667 399.867Z" fill="white"/>
<path d="M753.6 430.266C750.4 433.333 755.2 442 762.667 446.666C766.267 448.933 767.733 449.2 770 448C774.133 445.733 773.2 442.4 766.267 435.6C760.4 429.866 755.867 427.866 753.6 430.266Z" fill="white"/>
<path d="M616.933 440C611.2 441.333 599.333 449.467 593.467 456L588.933 461.067L582.8 455.333C579.2 451.733 574.533 448.933 571.2 448C563.067 445.733 554.8 450.133 548.933 460C543.467 469.2 542.267 473.467 540.267 489.6C537.467 513.467 542 534.933 557.6 572.267C567.067 595.067 571.6 597.867 581.733 586.933C606.267 560.933 634.4 517.467 642.533 493.2C646.667 480.8 648.133 466.667 646.133 459.2C642.267 444.667 630.133 436.667 616.933 440ZM634.533 455.067C638.267 460.133 638.933 472.8 636 484C633.2 494.667 625.733 510.933 616.4 526.4C602.667 549.333 573.867 584.533 571.333 581.733C570.667 581.2 566.267 568 561.333 552.667C552.667 525.6 552.267 524.133 551.733 508C550.933 488.933 552.4 478.533 557.467 468.267C563.2 456.533 571.067 455.6 578.267 466L582 471.333L577.333 482.667C569.6 501.733 568.533 521.467 574.533 532.933C580.8 545.333 592.533 543.333 597.6 528.933C601.2 518.667 600.8 496 596.8 482.267L593.867 472L598.267 465.867C603.467 458.667 613.867 450.667 619.733 449.333C625.2 448.133 631.067 450.4 634.533 455.067ZM590.533 508C590.533 517.333 590 522 588.267 525.867C586.133 530.667 585.733 530.933 583.867 529.067C579.333 524.533 579.467 503.733 584.133 492L586.533 486.133L588.4 490.667C589.6 493.6 590.4 500.133 590.533 508Z" fill="white"/>
<path d="M188 479.733C182 481.733 181.333 482.4 180.933 486.4C180.533 489.867 181.6 492.4 186 498.133C196.133 511.6 204.8 513.333 195.867 500.133C193.2 496.267 191.467 492.8 191.867 492.4C193.333 490.933 209.067 496 218.133 500.8C244.8 514.8 263.067 543.6 258.133 563.6C256.4 570 254.533 573.333 252.533 573.333C251.867 573.333 249.333 571.6 246.933 569.333C235.733 559.6 221.2 557.333 216.4 564.533C212.933 569.6 218.533 582.133 226.533 587.467C231.6 590.667 239.6 591.333 246.533 588.933L252.667 586.8L257.2 596.4C265.867 614.4 268.133 631.333 264 646.667C262.933 650.667 262 655.733 262 658L262.133 662L264.667 658.933C267.867 655.067 270.933 645.2 272.133 634.8C273.333 624.267 269.867 607.733 263.333 592.933L258.133 581.2L261.733 574.4C276.267 546.4 250.133 502.933 211.467 490.667C206.667 489.067 201.867 487.467 200.8 487.2C199.467 486.8 200.133 485.733 203.2 483.867C205.6 482.4 207.333 480.533 206.933 479.6C206.133 477.067 195.333 477.2 188 479.733ZM240 573.067C246.4 577.6 246.933 581.333 241.467 582.8C235.467 584.4 227.733 580.667 224.667 574.533C221.467 568.267 221.467 568.267 224.4 567.733C228 566.933 234.267 568.933 240 573.067Z" fill="white"/>
<path d="M909.067 499.867C905.467 502.667 898.4 509.867 893.467 515.867C883.067 528.267 876.534 533.333 870.667 533.333C867.334 533.333 864.267 530.8 851.334 517.467C835.467 501.067 831.2 498 822.4 496.533C815.2 495.467 804.667 500.133 798.667 507.067C796.134 510 790.4 519.467 785.867 528.133C781.334 536.933 775.867 545.467 773.734 547.333C766.934 553.067 761.734 551.6 739.067 538.133C719.6 526.533 708.4 525.333 696.267 533.467C686.4 540 682.134 553.467 687.867 559.867C692 564.4 694 563.467 693.734 557.333C693.467 550.933 696.667 546.133 703.334 542.533C712.267 537.733 720.8 539.867 736.934 550.8C758.134 565.333 776 566.533 785.334 554.133C787.067 551.867 792.4 542 797.334 532.4C804.267 518.267 807.2 514 811.067 511.333C820.8 504.8 826.8 507.6 842.667 526C856 541.467 861.2 545.2 870.4 545.333C877.067 545.333 883.2 542.667 890 536.533C898.534 528.8 920.667 500.533 920.667 497.467C920.667 493.2 916.4 494 909.067 499.867Z" fill="white"/>
<path d="M396 521.067C391.067 524.133 386 531.333 381.2 542C379.2 546.4 377.467 550.133 377.333 550.4C377.2 550.533 374 548.8 370.133 546.533C354.667 536.933 338 542.133 338 556.667C338 566.8 354.133 585.867 371.2 596L380.933 601.733L369.2 607.867C352 616.667 341.2 627.333 332.933 643.733C324.133 661.067 320.667 671.6 320.667 681.333C320.667 693.333 323.867 691.6 327.2 678C331.2 661.867 345.067 637.867 356.133 628.133C362.267 622.8 376.4 615.2 390.667 609.733C396.8 607.467 397.333 606.933 397.333 602.8C397.333 598.533 396.8 598.133 385.2 592.133C366.8 582.667 354 571.733 349.2 561.2C346.533 555.067 348.133 552 354.267 552C359.2 552 362.4 553.6 370.933 560.8C381.467 569.733 385.2 568.267 388.533 554C390.4 546.133 398.4 531.333 401.333 530.133C404.933 528.8 407.867 535.6 408.4 546.267C408.8 553.067 408 560 406 569.333C403.467 580.133 403.2 582.933 404.667 584.667C407.6 588.133 410.533 586.933 418.667 578.533C434.667 562.4 456.8 548.8 478.667 541.867C487.733 538.933 491.333 538.533 502 538.933C512.533 539.2 514.667 539.067 514.667 537.333C514.667 531.6 487.867 528.667 473.867 532.8C460.667 536.667 425.867 556.133 422.667 561.333C422.267 562 421.067 562.667 420.133 562.667C418.933 562.667 418.533 559.2 418.533 548.933C418.667 537.2 418.267 534.533 415.6 529.6C412.667 524 406 518.667 402 518.667C400.933 518.667 398.267 519.733 396 521.067Z" fill="white"/>
<path d="M42.9334 527.2C35.7334 529.867 30.1334 534 24 541.467C6.66668 562.267 -0.266651 588.4 1.06668 627.867C2.13335 660.667 8.66668 685.6 21.4667 706.267C28.5334 717.6 28.4 717.6 49.3334 713.333C56.4 711.867 62.9334 710.667 63.8667 710.667C64.6667 710.667 66.5334 712.8 67.8667 715.333C69.3334 718 73.0667 722.533 76.2667 725.333C83.7334 732.267 90.1334 732.533 102.8 726.4C122.133 716.933 136.8 698 136.933 682.267C137.067 675.333 137.2 674.8 141.067 673.2C147.067 670.667 163.867 653.2 171.333 641.867C179.867 628.933 183.467 619.067 184.267 606.533C185.2 593.733 182.4 584.533 175.067 576.533C168.667 569.467 160.8 566.667 148.133 566.667C130.933 566.667 111.2 573.6 90.4 586.667L82 592L82.2667 575.733C82.5334 554.267 79.4667 544 70 534.533C61.3334 525.867 53.0667 523.6 42.9334 527.2ZM57.6 540.4C62 542.8 65.6 548.133 68.1334 555.867C70.4 562.933 70.2667 572.4 67.8667 596.4C67.2 602.667 67.4667 604.533 69.3334 606.667C73.3334 611.067 78.1334 609.867 90.1334 601.867C112 587.333 128.533 580.4 144.8 579.067C158.667 578 165.6 581.067 170 590C172.533 595.2 172.933 597.733 172.4 605.867C171.333 622.933 161.067 640.267 141.733 657.867C132.267 666.533 132.133 666.533 124.8 666.533C116.533 666.4 112.667 667.6 104.8 672.667C101.867 674.533 98.9334 676 98.2667 676C97.7334 676 95.6 672.4 93.6 668C89.2 658.4 82.6667 653.333 74.9334 653.333C59.3334 653.333 53.3334 667.6 58.6667 692C59.6 696.8 60.2667 700.8 60 701.067C59.2 702 33.3334 709.333 31.0667 709.333C26.5334 709.333 17.2 679.2 13.8667 654C11.6 636.4 13.0667 599.6 16.5334 585.733C20.4 570.267 26 558.533 33.6 550.533C44 539.2 50.6667 536.533 57.6 540.4ZM81.0667 669.867C82.2667 671.6 84.2667 677.067 85.4667 682C87.2 688.933 88.4 691.2 90.9334 692.4C94.5334 694 93.6 694.533 108.8 684.267C114.933 680.267 118.4 678.667 121.333 678.933C125.067 679.333 125.333 679.733 125.067 684.267C124.667 691.467 120.667 698.4 112.4 706.133C104.533 713.6 100 716.4 88.9334 720.133C80.6667 722.933 81.3334 723.333 75.8667 712.933C71.3334 704.133 67.3334 688 67.3334 678.4C67.3334 671.867 67.8667 670 70.6667 667.2C74.4 663.467 77.3334 664.133 81.0667 669.867Z" fill="white"/>
<path d="M846.8 582.933C839.734 593.067 850.934 619.2 867.734 631.467C877.6 638.8 882.134 639.067 890.134 632.933C901.334 624.4 908.667 609.6 908.667 595.333C908.667 581.467 900 577.467 886.667 585.2C882.934 587.333 879.067 590 878.134 591.2C876.534 593.067 875.734 592.8 870.134 588.133C862 581.467 859.067 580 853.467 580C850.134 580 848.267 580.8 846.8 582.933ZM864.8 597.333C869.2 600.933 874.134 604 875.6 604C877.2 604 881.867 601.333 886 598.133C895.734 590.4 898.534 589.867 899.067 595.733C900.534 610.4 883.6 631.867 873.467 628.133C868.8 626.267 860 614.667 856.8 606C853.734 598 853.2 590.667 855.334 590.667C856.134 590.667 860.4 593.6 864.8 597.333Z" fill="white"/>
<path d="M742.933 625.867C727.733 631.333 716.8 648 711.867 672.667C710.667 679.333 709.467 684.8 709.333 685.067C709.2 685.2 704.267 683.6 698.533 681.2C692.667 678.933 683.2 676 677.333 674.8L666.667 672.4L667.067 663.733C667.733 652 665.067 646.4 657.2 642.667C650.667 639.467 646.267 639.867 637.6 644.267C625.467 650.4 612.533 669.467 610.533 684.133C609.733 689.733 610.133 690.667 614 695.067C621.733 703.867 642.133 712 656.8 712C665.467 712 672.133 708.4 675.2 702C677.067 698.133 676.8 696.133 673.2 685.2C672.533 683.2 673.2 683.2 679.333 684.267C683.2 684.933 691.2 687.067 697.2 689.067L708 692.667L708.933 712C710.4 741.867 715.333 770.8 722.8 793.6C725.333 801.467 730.8 806.267 738.667 807.467C747.467 808.667 769.733 806 786.933 801.6L802 797.6L807.733 805.867C817.067 818.933 830.933 840.4 836 849.733C841.467 859.6 844.667 862 844.667 856.133C844.667 851.467 834.667 831.867 822.533 812.667C817.333 804.533 812.8 797.333 812.267 796.4C811.6 795.333 815.6 792.667 825.067 788.267C832.667 784.667 842.4 779.333 846.8 776.4C874.267 757.6 882.267 731.067 864.933 715.867C849.867 702.533 826 702.133 801.333 714.8C795.6 717.733 790.8 719.867 790.533 719.733C790.4 719.467 790.8 716.267 791.6 712.667C793.733 702.133 793.2 676.667 790.667 664.8C784.267 634.533 764.4 618.267 742.933 625.867ZM762.533 638.533C775.2 646.4 781.467 666.267 780.4 695.2C779.867 709.333 779.067 713.2 774.8 726.533C770.667 738.933 770 742.267 771.2 744.8C773.733 750.667 779.2 749.067 789.867 739.467C801.2 729.333 807.733 725.2 819.2 721.333C835.067 716 851.467 718.4 858.667 726.933C868.133 738.133 856.667 758 832.933 771.867C824.267 776.933 804.533 785.867 804.133 785.067C804 784.8 799.333 779.467 793.6 773.2C783.6 761.867 777.333 757.6 773.333 759.2C770.4 760.267 772.133 763.2 783.333 775.733C788.4 781.333 792.667 786.667 792.667 787.467C792.667 790.667 769.6 797.333 749.6 800.133C739.6 801.467 737.6 801.467 736.667 799.867C736 798.933 733.6 791.2 731.333 782.933C720 742.133 717.467 693.6 725.333 666.533C732.133 642.8 748.933 630.133 762.533 638.533ZM656.667 652.933C660.267 657.467 659.733 664.8 655.467 670.133C651.6 675.067 651.867 676.8 657.867 682.133C663.467 687.2 668.133 696 666.933 699.2C665.6 702.533 656.533 704.267 648.533 702.533C639.867 700.8 623.467 693.333 620.8 690.133C618.533 687.467 620.133 680.933 625.6 670C629.6 661.733 632.933 658 640.533 653.2C648.133 648.267 652.933 648.267 656.667 652.933Z" fill="white"/>
<path d="M513.467 627.2C507.2 629.6 500.4 636 495.867 643.733C493.467 647.867 491.733 649.333 490.267 648.933C473.333 643.867 470.133 643.467 461.333 644.933C444.667 647.867 432.4 659.6 423.733 681.333C420.533 689.333 419.2 691.2 417.2 690.933C415.733 690.667 410.267 690.133 404.933 689.733C396 689.067 394.667 689.333 386.667 693.2C372.933 700 364.667 712.667 363.6 728.667C362.667 744.133 368.667 770.667 373.2 770.667C374.667 770.667 375.2 766.667 375.6 747.6C376 725.067 376.133 724.533 380 717.467C386.533 705.6 396.933 700.933 409.733 704L416.267 705.467L417.067 724.4C418.267 751.067 422.533 768.267 431.6 782C441.6 797.067 451.2 802.267 460.267 797.733C468.133 793.867 470.533 789.333 471.067 777.6C472.267 752.133 457.467 718.4 439.067 704.4C436.267 702.4 433.733 699.733 433.333 698.533C431.333 692.533 445.067 667.867 453.2 662.667C460.8 658.133 472.933 657.6 480.667 661.6L486.667 664.667L486.267 680C485.333 706.8 490.4 732.667 500.267 753.2C507.467 768.267 517.467 779.333 525.2 780.667C540 783.467 548.133 768.533 544.8 744.533C540.667 714.933 528.133 686.667 509.6 665.067L503.067 657.333L506 651.333C509.467 644 515.2 639.067 521.333 637.867C543.467 633.733 582.267 693.333 590.667 744.667C593.6 762.8 595.2 768.267 596.933 767.2C598.8 766 597.467 745.467 594.533 728.667C587.6 688.4 559.733 640.133 537.333 629.333C529.467 625.467 520.267 624.667 513.467 627.2ZM507.2 685.333C514.8 696.133 523.867 715.6 527.333 728.667C531.067 742.533 532.267 762.4 529.6 765.867C527.867 768.267 527.467 768.133 522.133 762.533C509.6 749.333 500.933 723.2 499.733 694.267C499.2 683.467 499.467 677.333 500.267 677.333C501.067 677.333 504.133 680.933 507.2 685.333ZM438 722.267C448.933 734.667 458 758.267 458 774.133C458 783.2 457.067 785.333 453.333 785.333C447.333 785.333 437.867 769.867 433.333 752.667C430.667 742.8 428.933 716 431.067 716C431.867 716 434.933 718.8 438 722.267Z" fill="white"/>
<path d="M255.867 707.867C247.6 711.6 238.533 724 234.133 737.6L232.533 742.667L224.8 742.533C214.667 742.4 209.2 745.2 205.867 752.4C196.933 772.267 215.333 813.333 241.067 831.067C250.267 837.467 251.467 836.933 260.4 823.6C276.133 800.133 283.6 784.533 288.533 765.333C298.133 727.067 280.933 696.533 255.867 707.867ZM271.2 716.667C276.667 719.467 280.667 728.667 281.6 740.267C282.933 759.333 274.133 784.133 255.867 812.933C251.067 820.533 246.667 826.667 246 826.667C243.2 826.667 228.667 808.667 223.733 799.2C208.133 769.333 210.133 746.533 227.867 753.333C230.267 754.267 231.467 755.867 232 759.6C234.667 775.467 242.667 788 250.133 788C254.933 788 258 783.6 258 776.667C257.867 769.6 254.133 761.467 247.333 754.133L241.733 748L243.2 741.867C246.933 727.2 256.8 714.933 265.067 714.667C266.4 714.667 269.2 715.6 271.2 716.667Z" fill="white"/>
<path d="M118 762.8C106.4 767.467 96.6668 783.333 95.6001 799.467C94.8001 812.933 97.8668 822.933 105.333 830.267C110.4 835.467 111.6 836 117.467 836C125.2 836 134 832 138.8 826.267C140.8 823.867 144.267 818.133 146.533 813.333C150 805.867 150.533 803.2 150.667 793.333C150.667 783.6 150.133 780.933 146.933 774.4C142.267 764.933 136.933 761.333 127.867 761.467C124.267 761.467 119.867 762.133 118 762.8ZM130 776C136.267 779.333 137.6 797.467 132.133 808.4C128.267 816.133 121.067 822 116.933 820.8C113.733 819.733 109.333 809.867 108.133 800.933C107.2 794.8 108.933 782.533 111.2 778.8C113.2 775.733 125.867 773.867 130 776Z" fill="white"/>
<path d="M370.134 799.467C366.134 800.533 362 802.133 361.067 802.933C357.867 805.6 361.2 806.8 367.467 805.467C370.667 804.667 376.667 804 380.667 804C387.2 804 387.734 804.133 385.867 806.133C384.667 807.2 366.667 815.067 345.867 823.467C302.133 841.2 282 850.533 279.6 854.667C277.2 858.533 278.8 862.4 283.067 863.6C289.2 865.333 312.134 864.4 337.734 861.467C351.067 860 364 858.667 366.4 858.667L370.667 858.8L366.667 860.933C364.534 862.133 336.267 874.533 304 888.533C240.933 915.867 233.333 919.733 230.933 924.933C229.6 927.867 229.867 928.667 232.667 930.933C237.867 935.067 256.933 933.6 300.667 925.6C320.8 922 341.2 918.533 345.734 918C353.6 917.067 354.267 917.2 353.734 919.467C353.467 920.8 345.467 928.133 336 935.733C301.467 963.333 296.267 969.067 299.867 976.133C303.467 983.467 312.534 984.4 332 979.333C347.2 975.333 356.4 971.2 354.267 969.067C353.2 968 350.534 968.133 345.067 969.2C318.267 974.8 310 975.333 310 971.2C310 970.133 318.267 962.533 328.4 954.4C361.6 927.2 369.867 917.067 363.334 911.733C358.134 907.6 345.067 909.067 281.6 920.667C256 925.467 242.933 926.533 245.6 923.867C246.4 923.067 275.067 910.267 309.467 895.2C343.734 880.267 374.4 866.4 377.6 864.533C383.6 861.067 386.267 855.733 383.467 852.933C380.667 850.133 365.467 850.4 334.4 853.867C301.067 857.6 292.667 858 292.667 856C292.667 854.133 297.067 852.133 342.134 833.333C384 815.733 392.8 811.333 395.334 806.8C399.6 798.8 386.667 795.067 370.134 799.467Z" fill="white"/>
</svg>
