<svg width="173" height="177" viewBox="0 0 173 177" fill="none" xmlns="http://www.w3.org/2000/svg">
<path d="M4.38863 24.175C-7.30768 52.7797 6.34321 89.9473 22.2589 114.147C40.0322 141.193 66.7349 161.143 97.7109 170.518C109.252 174.055 113.906 158.822 106.677 151.748C106.64 151.538 106.588 151.331 106.522 151.128C93.3674 109.152 80.9886 66.8029 67.0275 25.1058C62.3117 11.0206 53.0663 -0.179397 36.8715 0.441097C29.7376 0.816866 22.8674 3.26119 17.0993 7.47571C11.3312 11.6902 6.91459 17.4927 4.38863 24.175ZM42.2388 23.6786C46.6443 27.1223 47.9784 37.8258 49.5296 42.7587C51.8564 50.2046 54.2143 57.6506 56.5411 65.0965C64.2973 89.7922 72.0328 114.488 79.7476 139.183C45.6205 119.235 18.1325 80.0815 22.6932 40.8042C23.4998 33.5755 32.0006 15.6432 42.1146 23.6786H42.2388Z" fill="#231F20"/>
<path d="M136.429 59.9159C120.576 72.8532 116.729 98.7898 118.249 117.963C120.031 139.31 129.242 159.357 144.279 174.614C149.863 180.323 157.402 172.97 155.448 166.548V166.144C161.094 137.571 167.33 109.059 172.418 80.3612C174.124 70.6815 172.418 61.2499 162.707 56.4721C158.461 54.4554 153.722 53.7075 149.061 54.3183C144.399 54.9292 140.013 56.873 136.429 59.9159ZM158.581 71.6432C160.039 75.0249 157.433 81.6641 156.782 85.0458C155.789 90.1028 154.765 95.191 153.679 100.248L143.72 150.663C130.256 128.294 126.595 96.8042 141.704 75.3972C144.496 71.4571 155.168 63.7319 158.581 71.6432Z" fill="#231F20"/>
</svg>
