<svg width="145" height="185" viewBox="0 0 145 185" fill="none" xmlns="http://www.w3.org/2000/svg">
<path d="M78.589 2H121.721V111.86V113.86H123.721H142.093V147.189H123.721H121.721V149.189V183H76.3704V149.189V147.189H74.3704H2.59814V113.112L78.589 2ZM74.3704 113.86H76.3704V111.86V90.3488C76.3704 86.3376 76.4958 80.9281 76.7482 74.1109C76.9165 70.6619 77.0631 68.0463 77.188 66.2558C77.2507 65.357 77.3068 64.684 77.3556 64.2245C77.3742 64.0496 77.3904 63.919 77.4037 63.8262L78.7453 61.143H75.5092H74.1173H72.8141L72.2877 62.3351C69.4619 68.7348 66.2661 74.7111 62.7021 80.2665L42.2146 110.745L40.1202 113.86H43.8745H74.3704Z" stroke="#7A7A7A" stroke-width="4"/>
</svg>
