<svg width="20" height="21" viewBox="0 0 20 21" fill="none" xmlns="http://www.w3.org/2000/svg">
<path d="M10.2041 8.39902V12.3746H15.6958C15.4547 13.6531 14.731 14.7357 13.6457 15.4636L16.9574 18.0486C18.8869 16.2569 20.0001 13.6252 20.0001 10.4989C20.0001 9.77097 19.9352 9.07099 19.8145 8.39913L10.2041 8.39902Z" fill="#4285F4"/>
<path d="M4.48526 12.2194L3.73834 12.7945L1.09448 14.8663C2.77353 18.2165 6.21488 20.5309 10.2038 20.5309C12.9588 20.5309 15.2687 19.6164 16.957 18.0486L13.6453 15.4635C12.7362 16.0795 11.5766 16.4528 10.2038 16.4528C7.55068 16.4528 5.29655 14.6517 4.48943 12.2253L4.48526 12.2194Z" fill="#34A853"/>
<path d="M1.09455 5.66466C0.39885 7.04577 0 8.60428 0 10.2654C0 11.9265 0.39885 13.485 1.09455 14.8661C1.09455 14.8754 4.48983 12.2158 4.48983 12.2158C4.28574 11.5998 4.16511 10.9466 4.16511 10.2653C4.16511 9.58394 4.28574 8.93072 4.48983 8.3148L1.09455 5.66466Z" fill="#FBBC05"/>
<path d="M10.204 4.08752C11.7068 4.08752 13.0426 4.61011 14.1094 5.618L17.0315 2.67839C15.2596 1.01728 12.9591 0 10.204 0C6.21508 0 2.77353 2.30506 1.09448 5.66467L4.48965 8.31503C5.29666 5.88862 7.55089 4.08752 10.204 4.08752Z" fill="#EA4335"/>
</svg>
