<svg width="27" height="29" viewBox="0 0 27 29" fill="none" xmlns="http://www.w3.org/2000/svg">
<mask id="mask0_1_73" style="mask-type:alpha" maskUnits="userSpaceOnUse" x="0" y="0" width="27" height="29">
<mask id="mask1_1_73" style="mask-type:luminance" maskUnits="userSpaceOnUse" x="2" y="1" width="24" height="27">
<path fill-rule="evenodd" clip-rule="evenodd" d="M2.22314 1.20364H25.0103V27.0825H2.22314V1.20364Z" fill="white"/>
</mask>
<g mask="url(#mask1_1_73)">
<path fill-rule="evenodd" clip-rule="evenodd" d="M15.2473 18.4014C16.5857 18.4014 17.675 19.5723 17.675 21.0115V24.7132C17.675 25.0224 17.904 25.2703 18.1974 25.2775H20.3161C21.9857 25.2775 23.3429 23.8263 23.3429 22.0428V11.5445C23.3352 10.9307 23.0651 10.3531 22.6015 9.96924L15.2729 3.64183C14.2891 2.79825 12.913 2.79825 11.9259 3.64423L4.64729 9.96683C4.16597 10.3627 3.89586 10.9404 3.8903 11.5649V22.0428C3.8903 23.8263 5.24754 25.2775 6.91713 25.2775H9.05581C9.35705 25.2775 9.6016 25.0188 9.6016 24.7011C9.6016 24.6313 9.60938 24.5615 9.62272 24.4953V21.0115C9.62272 19.5807 10.7054 18.411 12.0337 18.4014H15.2473ZM20.3161 27.0826H18.1774C16.9525 27.0513 16.0076 26.0104 16.0076 24.7132V21.0115C16.0076 20.5675 15.6664 20.2065 15.2473 20.2065H12.0393C11.6291 20.2089 11.2901 20.5711 11.2901 21.0115V24.7011C11.2901 24.7914 11.279 24.878 11.2556 24.9598C11.1356 26.1512 10.1952 27.0826 9.05581 27.0826H6.91713C4.32826 27.0826 2.22293 24.8215 2.22293 22.0428V11.5565C2.23405 10.3603 2.74315 9.26526 3.62241 8.54443L10.8866 2.23266C12.4861 0.860796 14.7149 0.860796 16.3111 2.23025L23.6275 8.54804C24.4868 9.25684 24.9959 10.3495 25.0103 11.5312V22.0428C25.0103 24.8215 22.905 27.0826 20.3161 27.0826V27.0826Z" fill="black"/>
</g>
</mask>
<g mask="url(#mask0_1_73)">
<rect x="-3.92322" y="0.849426" width="37.6629" height="30.5802" fill="white"/>
</g>
</svg>
