<svg width="534" height="439" viewBox="0 0 534 439" fill="none" xmlns="http://www.w3.org/2000/svg">
<path fill-rule="evenodd" clip-rule="evenodd" d="M333.313 244.115L337.961 246.181C338.925 246.626 349.558 251.734 362.329 257.871C382.92 267.765 409.071 280.33 409.23 280.33C409.489 280.33 410.7 277.529 410.973 274.262C411.619 267.226 414.007 257.672 416.783 251.022C418.074 248.053 419.107 244.341 419.107 244.019C419.107 243.871 418.058 243.448 416.34 242.755C414.294 241.93 411.302 240.723 408.004 239.144C391.736 231.333 359.91 215.388 355.972 212.999C352.099 210.74 351.324 210.546 351.324 212.031C351.324 213.968 347.387 222.941 344.352 227.782C342.739 230.429 339.575 235.206 337.316 238.37L333.313 244.115ZM408.133 268.71C409.984 269.783 406.777 271.357 406.003 271.615C401.441 272.003 396.071 271.145 391.671 268.581C389.371 266.95 371.256 256.886 359.24 250.211C353.747 247.159 349.528 244.815 348.678 244.309C345.966 242.695 343.384 240.952 342.932 240.435C341.577 238.692 342.868 237.918 346.676 238.24C348.966 238.434 404.134 266.393 408.133 268.71ZM161.348 430.287C156.426 432.364 148.696 435.626 143.716 436.716C135.97 438.394 115.635 438.846 106.274 437.555C86.1331 434.715 63.8616 426.71 52.5644 418.124C48.0456 414.767 47.7228 413.863 46.8836 403.857L46.4317 398.628L43.4622 396.498C38.7496 393.076 27.4525 381.973 23.7083 376.873C20.6267 372.796 16.3265 363.775 14.1062 359.117C13.3032 357.432 12.7722 356.318 12.6694 356.216C11.5074 355.247 7.31129 341.561 6.27841 335.235C1.82411 308.574 8.15051 277.329 22.2235 256.155C32.2296 241.049 46.9481 229.236 61.0212 224.91C65.3464 223.555 73.2221 222.974 71.9955 224.136C71.6728 224.394 68.8323 225.427 65.6046 226.395C45.8507 232.399 32.3587 244.793 21.3843 267.129C8.47328 293.339 5.18097 322.459 14.5415 348.41C14.8825 349.336 15.242 350.39 15.632 351.534C17.3088 356.452 19.55 363.026 23.321 368.158C27.7753 374.162 40.5572 387.137 43.914 389.074L46.1089 390.301L45.7216 387.137C43.9786 373.258 43.6558 307.218 45.2697 294.565C45.9798 289.014 46.6254 287.464 48.2392 287.464C49.0139 287.464 49.143 290.047 49.143 301.796C49.143 330.2 52.3708 391.592 54.6948 407.537C54.8225 408.36 54.9441 409.149 55.0566 409.88C55.4558 412.472 55.7418 414.329 55.7922 414.38C56.6314 414.961 69.0906 420.19 73.9322 421.997C92.2013 428.84 116.151 432.455 132.419 430.841C145.266 429.55 154.543 427.432 160.74 422.719C162.419 421.428 167.989 416.704 170.894 410.377C176.188 398.693 181.416 379.907 184.58 360.863C185.548 354.924 186.581 350.276 186.904 350.535C187.226 350.793 186.323 349.179 184.902 346.855C181.352 340.98 178.253 335.041 178.253 334.073C178.253 331.878 180.965 334.202 185.742 340.658C188.582 344.531 192.262 348.727 193.811 349.954C195.36 351.245 199.686 354.924 203.43 358.152C224.927 376.873 245.003 390.236 267.662 401.146C303.103 418.059 343.966 427.355 377.212 426C428.404 423.934 470.236 404.18 491.733 371.902C493.992 368.481 510.343 341.44 509.421 340.4C508.951 339.87 506.716 340.361 504.526 340.842C502.889 341.202 501.276 341.557 500.448 341.474C496.832 341.087 483.253 337.242 481.985 328.069C481.823 326.896 479.132 323.462 479.132 323.462C479.132 323.462 476.433 324.067 473.141 325.616C466.815 328.586 460.553 326.972 452.483 320.258C448.223 316.708 446.222 313.157 446.157 309.284C446.157 307.025 444.084 304.231 443.51 303.894C442.937 303.558 440.155 304.669 439.315 305.573C436.023 309.123 424.083 308.777 419.238 306.185C416.478 304.71 412.201 300.375 411.297 297.018C411.215 296.747 411.12 296.308 411.003 295.767C410.48 293.344 409.514 288.873 407.23 288.239C406.456 287.852 402.647 286.044 398.709 284.237C394.836 282.364 390.123 280.17 388.316 279.33C385.282 277.846 384.765 277.781 382.054 278.491C379.084 279.201 377.083 282.687 377.083 284.237C377.083 286.625 378.116 291.079 380.892 295.017C385.282 301.279 391.931 307.154 402.711 314.319C412.395 320.775 414.525 322.841 417.753 328.844C421.045 335.041 422.401 341.432 422.53 351.18C422.594 358.281 400.872 386.04 370.628 383.329C340.383 380.617 307.299 372.032 286.577 361.703C264.563 350.664 245.132 336.397 227.315 317.999C218.923 309.413 218.277 308.574 210.724 295.856C201.235 279.782 200.654 278.685 201.106 276.877C201.429 275.522 201.429 275.522 194.521 275.973C186.71 276.554 172.379 275.715 163.728 274.23C141.392 270.357 121.509 261.384 101.885 246.407C100.206 245.116 98.9796 244.471 99.1732 244.987C99.496 245.762 98.5277 246.149 95.1063 246.665C89.8773 247.569 85.1648 246.536 82.9053 244.083C79.4194 240.275 74.9005 228.655 74.5777 222.586C74.4486 219.552 73.9967 217.809 73.3512 217.357C72.8347 216.97 72.3829 216.131 72.3829 215.485C72.3829 214.775 72.0601 214.517 71.4791 214.711C70.9626 214.904 70.0589 214.517 69.4133 213.807C69.3458 213.732 68.9329 213.442 68.2493 212.963L68.2462 212.961L68.2456 212.961C63.0414 209.313 42.1989 194.706 38.4914 179.98C34.2953 163.314 32.4878 152.48 31.9068 148.025C30.8094 140.15 30.7448 139.827 27.4525 134.791C22.6754 127.368 17.3819 117.168 16.4781 113.876L15.768 111.035L14.0896 117.878C13.1213 121.687 12.3466 125.947 12.3466 127.368C12.3466 129.175 12.0238 130.143 11.3137 130.402C9.3125 131.176 8.15051 129.562 6.66574 124.075C5.37464 119.169 5.24553 117.684 5.5683 108.711C5.95563 98.3178 7.05307 88.7636 8.79606 81.3398C11.3137 70.5591 15.3161 60.4239 18.3502 57.1316C19.7059 55.6468 21.3843 55.195 21.3843 56.357C21.3843 56.7443 20.9324 57.0025 20.416 57.0025C17.8983 57.0025 12.282 75.0779 10.1517 89.732C9.11884 97.1558 8.66695 120.267 9.63528 120.267C9.8935 120.267 10.7327 118.33 11.5719 116.006C13.3149 111.035 15.9617 106.71 17.3173 106.71C17.9629 106.71 18.0274 107.033 17.6401 107.743C16.93 108.969 17.8983 112.649 19.5768 115.102C19.8023 115.453 20.3196 116.28 21.0191 117.399L21.0209 117.402L21.0215 117.403L21.0219 117.404L21.0225 117.405L21.0236 117.406L21.0258 117.41L21.0265 117.411L21.0268 117.411L21.0272 117.412L21.028 117.413C22.1303 119.176 23.6819 121.658 25.2576 124.14L29.841 131.564L29.4537 123.172C29.1309 117.878 29.26 112.714 29.7765 109.292C30.4866 103.676 32.165 99.157 33.327 99.4798C34.1017 99.6734 34.1017 101.933 33.1333 110.519C32.6815 114.198 32.4878 117.362 32.6169 117.555C32.8106 117.684 33.327 116.974 33.8434 115.941C34.4244 114.973 36.1029 112.649 37.6522 110.841C39.2661 109.034 41.3318 105.935 42.3002 103.934C44.1077 100.254 51.8543 90.8939 55.7922 87.6016C57.3415 86.3105 58.8263 83.9865 60.5047 80.2423C71.4145 55.3241 90.9102 33.4399 114.86 19.3669C120.993 15.7518 121.445 15.3645 120.025 14.848C119.25 14.5252 116.345 13.1696 113.698 11.8785C111.804 10.9546 110.043 10.13 109.099 9.68825L109.099 9.68817C108.724 9.5126 108.478 9.39755 108.405 9.36082C108.211 9.23171 107.824 9.74815 107.565 10.4583C106.984 12.3949 106.016 12.1367 105.177 9.81271C104.79 8.71527 103.821 7.61784 102.982 7.29506C100.981 6.5204 100.981 4.84197 102.982 4.32552C104.725 3.93819 108.146 5.48752 113.698 9.23171C115.635 10.5228 118.282 12.1367 119.508 12.7822C120.735 13.4278 121.961 14.2025 122.155 14.5252C122.349 14.7835 124.673 14.0733 127.319 12.8468C146.363 4.13186 156.146 0.0484196 185.032 0.000330779C210.803 -0.0425734 221.484 4.09183 237.551 10.3109L237.551 10.3111C239.493 11.0626 241.513 11.8445 243.648 12.6531C290.815 30.52 307.308 65.9289 311.41 74.7348C311.581 75.1026 311.731 75.424 311.86 75.6958C325.352 104.1 329.441 130.854 324.148 161.905C323.438 166.101 322.986 169.651 323.115 169.78C323.244 169.909 324.729 169.264 326.472 168.36C329.054 166.94 330.151 166.746 332.475 167.069C336.478 167.65 338.221 168.618 339.706 171.007C341.901 174.622 341.965 180.303 339.899 190.18C339.512 191.923 339.512 191.923 342.998 191.923C347.388 191.923 348.937 193.02 350.293 197.023C351.067 199.411 351.196 200.96 350.745 203.736C350.208 207.015 356.113 209.632 383.355 221.707C385.612 222.708 388.016 223.773 390.575 224.909C405.746 231.623 418.463 235.175 418.786 235.175C419.173 235.175 420.141 233.754 420.916 231.947C423.563 226.072 430.018 221.876 439.056 220.198C443.189 219.43 449.121 219.587 452.548 221.295C456.412 223.222 461.392 229.881 462.877 234.658L463.651 236.982L467.331 235.304C470.494 233.819 471.85 233.561 476.821 233.561C483.212 233.561 484.245 233.884 491.346 238.596C496.123 241.695 499.221 245.826 500.706 250.991L501.739 254.412L505.096 253.121C512.261 250.41 520.912 252.669 527.303 258.931C530.918 262.611 533.565 266.193 533.565 273.779C533.565 280.186 528.529 305.863 526.464 312.318C521.751 326.649 507.619 368.158 491.733 386.04C477.57 401.982 472.395 405.045 463.709 410.188C462.652 410.814 461.543 411.47 460.359 412.185C435.441 427.226 408.005 434.069 373.21 434.069C352.488 434.069 337.059 432.197 315.368 426.903C271.858 416.381 229.962 393.916 201.816 365.963C200.915 365.062 199.605 363.717 198.143 362.217C193.321 357.266 186.847 350.619 187.937 352.6C189.744 356.022 188.13 376.421 184.967 390.753C180.577 410.184 168.378 427.41 164.374 429.025C163.587 429.342 162.552 429.779 161.348 430.287ZM246.294 327.294C279.088 354.923 324.406 372.806 361.913 376.099C373.855 377.131 389.542 374.549 398.451 370.095C403.68 367.448 409.425 362.929 411.491 359.895C414.654 355.118 417.029 349.824 417.107 347.694C417.753 330.062 400.727 317.999 390.833 311.866C378.24 304.06 371.662 292.693 371.662 286.367C371.662 280.751 374.307 277.071 375.727 275.134L377.083 273.327L375.663 272.423C366.819 267 357.523 261.771 348.743 257.253C342.869 254.218 336.026 250.41 333.573 248.667L328.989 245.633L327.376 247.117C324.406 249.958 319.048 251.959 314.594 251.959C310.72 251.959 310.333 251.83 308.267 249.764L306.008 247.505L303.232 249.377C299.165 252.153 292.451 255.187 290.45 255.187C285.479 255.187 278.766 250.926 277.023 246.73L276.248 244.858L273.537 246.859C255.138 260.738 232.35 270.486 208.917 274.489C203.365 275.392 202.203 275.78 203.559 276.167C204.85 276.49 205.947 277.716 207.432 280.299C214.533 292.887 232.48 315.609 246.294 327.294ZM20.3514 87.5371C20.6096 87.2789 19.4477 86.6979 17.7047 86.3105C15.187 85.7295 14.8642 85.5359 15.8971 85.084C17.511 84.4384 20.7388 81.4689 20.7388 80.6297C20.7388 80.3069 19.8995 80.7588 18.9312 81.7271C17.9629 82.6954 16.2199 83.6638 15.0579 83.8574C12.7985 84.3093 12.4111 85.4068 14.025 86.9561C15.0579 87.989 19.5122 88.3763 20.3514 87.5371ZM42.6875 85.9232C44.8824 85.6004 45.2697 86.3105 43.3976 87.3434C41.8483 88.1181 40.299 88.1181 38.2978 87.2789C36.7484 86.6979 36.8775 85.4068 38.4914 85.4068C39.0079 85.4068 40.1053 84.1802 40.88 82.6954C41.9128 80.6297 42.3647 80.2423 42.5584 81.0816C42.6875 81.7271 42.3647 82.9537 41.7837 83.7929C40.3635 85.9878 40.4926 86.246 42.6875 85.9232ZM10.4099 56.4215C14.6706 54.2912 19.5122 52.3545 21.0615 52.0963C24.2893 51.6444 24.8057 50.8052 22.4172 50.1597C20.1578 49.6432 15.0579 50.8052 10.0872 53.0646C7.76318 54.0975 5.89108 54.7431 5.89108 54.4203C5.89108 52.871 17.5756 43.2523 27.6462 36.5385C47.0772 23.563 59.02 18.2694 69.3488 18.2694C74.1258 18.2049 74.5132 18.1403 73.4157 17.3011C71.4145 15.8163 64.378 16.0746 58.1162 17.8821C48.1101 20.7871 37.3294 26.4679 21.3843 37.2486C4.72909 48.4812 -4.43774 59.4556 2.14688 60.1657C2.4051 60.2303 6.08474 58.4873 10.4099 56.4215ZM52.3708 55.7114C52.3708 56.357 52.1125 56.4215 46.0444 57.6481C39.137 59.0037 38.0395 58.4227 40.0407 54.614C41.3318 52.0318 51.7252 41.5093 52.9518 41.5093C53.3391 41.5093 53.6619 41.2511 53.6619 40.9928C53.6619 40.6701 51.9834 40.1536 49.9822 39.8308C42.7521 38.6689 46.6899 36.2158 55.9213 36.0866C59.0845 36.0221 59.7946 36.2158 59.9883 37.1195C60.1819 38.0233 59.7946 38.1524 58.0516 37.8942C56.8896 37.7005 55.2112 37.8296 54.3074 38.1524L52.6935 38.7334L54.1783 39.1853C56.115 39.8308 55.9859 40.9283 53.5973 42.4776C52.4999 43.1877 49.4012 46.2218 46.7545 49.2559L41.9128 54.7431L47.1418 54.9367C50.0468 55.0659 52.3708 55.3886 52.3708 55.7114ZM86.4559 33.9563C86.3268 33.0526 86.7787 32.7298 88.6508 32.6007L88.6727 32.5989C91.0397 32.407 91.1007 32.402 90.071 30.7931C89.5826 30.0606 89.3251 29.6744 89.4282 29.4708C89.5432 29.2438 90.1064 29.2438 91.2975 29.2438C92.5886 29.2438 93.8152 29.5666 94.0088 29.8894C94.3316 30.4058 94.7189 30.4058 95.2354 29.9539C95.8164 29.502 96.2683 29.502 96.7847 30.0185C97.3657 30.5995 97.5594 30.5349 97.5594 29.7602C97.5594 28.34 96.3328 27.6299 95.429 28.5337C95.0417 28.921 94.4607 28.9856 94.0734 28.6628C93.1696 27.9527 86.8432 27.2426 86.3268 27.759C86.1331 28.0173 86.5204 28.7919 87.2305 29.6311L88.5862 31.0513L86.7787 31.5032C85.8103 31.6969 84.5838 32.2779 84.1319 32.6652C83.4218 33.1817 83.5509 33.5044 84.7774 34.15L84.9468 34.246C85.923 34.7998 86.3384 35.0354 86.4829 34.923C86.5899 34.8397 86.5483 34.5654 86.4758 34.0878L86.4559 33.9563ZM77.0954 12.1367C78.0637 13.105 78.8384 14.5898 78.8384 15.429C78.8384 17.3011 78.3219 17.3011 76.4498 15.429C74.7068 13.686 69.5424 11.8139 66.3792 11.8139C64.8299 11.8139 63.797 11.4911 63.6034 10.8456C62.3768 7.61784 68.8969 6.39129 81.8079 7.29506C92.5886 8.06972 98.2049 9.16716 102.595 11.4266C105.112 12.7822 105.371 13.0405 104.015 13.0405C103.111 13.0405 100.658 12.6531 98.5277 12.1367C96.3974 11.5557 90.3292 10.9747 84.9711 10.7165L75.2878 10.3292L77.0954 12.1367ZM64.6996 204.284C61.4718 201.702 54.5644 194.085 49.3355 187.371C46.6242 183.82 43.5901 176.59 41.7825 169.296C40.9433 166.003 40.1041 163.034 39.9104 162.646C39.6522 162.324 38.6193 157.74 37.5864 152.447C36.6999 148.161 36.4279 145.539 36.1026 142.4C35.8593 140.054 35.5863 137.42 35.0042 133.589C34.4282 129.796 33.9068 126.778 33.9068 126.778L35.5852 124.623C36.5536 123.332 37.7785 121.196 38.232 119.975C40.2978 114.417 55.4682 96.9938 55.9201 97.4456C56.0492 97.5748 55.5328 100.609 54.629 104.159C53.7898 107.71 52.7569 113.068 52.305 116.102C51.6595 121.137 51.4012 121.718 49.4 123.397C46.8824 125.527 42.1053 132.37 42.1053 133.79C42.1053 135.727 45.0103 134.436 48.0444 131.273L51.143 128.045V131.595C51.143 133.919 50.6911 136.05 49.8519 137.728C48.238 140.891 48.238 144.248 49.7874 146.83C50.562 148.121 51.2721 151.22 51.724 154.9C53.7252 171.555 57.9859 186.015 65.2806 200.54C67.0881 204.155 68.5083 207.125 68.4438 207.125C68.3147 207.125 66.6362 205.834 64.6996 204.284ZM127.108 224.743C140.923 233.845 158.03 239.978 175.266 242.173C181.012 242.883 199.604 241.979 205.801 240.623C223.876 236.815 239.176 229.068 253.572 216.48C270.55 201.568 283.59 178.07 287.98 154.442C289.594 145.857 289.594 130.363 288.044 122.165C285.656 109.964 281.718 98.925 276.682 90.1455C274.681 86.6595 274.036 84.9165 274.036 82.6571C274.036 80.204 273.584 79.1711 270.55 75.1687C263.836 66.2601 254.734 57.7388 245.632 51.6706C240.984 48.572 231.042 43.0848 230.138 43.0848C229.88 43.0848 229.493 46.9581 229.299 51.6706C228.976 60.1919 227.879 65.0335 226.265 65.0335C225.103 65.0335 223.037 63.7424 223.037 63.0323C223.037 62.7096 220.907 58.9654 218.26 54.8338C214.387 48.7657 212.386 46.3126 207.931 42.4392C204.962 39.7925 201.347 37.0812 199.991 36.3065C198.635 35.5964 197.344 34.7572 197.151 34.4344C196.311 33.337 172.232 34.499 165.583 35.9192C145.055 40.438 127.818 49.8631 112.971 64.7108C104.256 73.4257 98.4458 81.4951 92.9586 92.4695C88.2461 101.959 85.5993 109.447 83.5336 119.26C81.5324 128.879 81.4678 145.469 83.469 156.25C86.2449 171.098 91.9257 184.912 100.512 197.823C106.515 206.797 118.91 219.385 127.108 224.743ZM129.884 195.951C130.078 196.403 129.69 197.372 129.109 198.017C127.625 199.696 113.337 197.572 105.034 181.685C96.7312 165.798 97.542 130.557 101.738 117.517C104.449 109.189 107.032 104.864 112.712 99.4414C115.359 96.9238 115.747 96.7301 118.264 97.1174C119.283 97.2481 118.234 98.7852 116.447 101.403C113.818 105.254 109.593 111.444 108.004 118.937C104.745 134.298 103.227 143.855 105.034 157.993C106.906 172.518 109.94 179.554 118.203 188.979C120.281 191.329 125.076 193.583 127.835 194.879C129.018 195.436 129.826 195.816 129.884 195.951ZM209.739 174.648C215.161 168.322 219.811 153.819 220.907 143.791C223.037 124.304 210.191 105.832 202.057 100.152C197.602 96.9883 194.762 96.02 190.372 96.02C185.853 96.0846 182.303 97.8921 177.332 102.992C172.426 107.963 161.038 127.999 163.646 145.211C165.157 155.179 167.391 163.093 171.716 169.613C176.751 177.166 182.644 180.687 190.179 181.685C197.98 182.718 207.221 177.618 209.739 174.648ZM134.984 85.433C135.371 88.2088 135.178 88.9189 133.887 90.4037C131.821 92.7277 129.045 93.1796 126.205 91.6303C124.074 90.4683 123.945 90.21 123.751 86.4013C123.558 82.8508 123.751 82.3343 125.301 80.8495C127.496 78.7838 130.465 78.7838 132.854 80.7204C134.209 81.8179 134.726 82.8508 134.984 85.433ZM152.285 65.55C157.514 62.3222 162.549 58.9008 174.169 50.5732C187.338 41.0836 190.372 39.4052 195.343 38.8242C199.668 38.3077 200.12 37.2748 196.311 36.3711C190.179 34.8217 177.397 39.857 165.067 48.7657L159.45 52.8326L151.704 52.5098C147.443 52.3807 141.44 51.7352 138.341 51.2187C131.369 49.9276 129.239 50.5086 131.692 53.0263C133.176 54.5111 140.019 56.4477 147.056 57.3515L153.318 58.1907L150.09 61.1602C147.766 63.2906 146.862 64.6462 146.862 65.8728C146.862 68.1967 148.153 68.1322 152.285 65.55ZM311.3 248.44L309.945 247.084C309.945 247.084 332.445 218.497 336.477 207.964C339.553 199.926 341.364 197.646 343.807 197.646C345.174 197.646 346.289 197.958 346.805 198.733C347.709 200.088 348.58 201.767 347.418 207.512C345.482 216.808 342.512 222.941 333.603 236.175C331.538 239.209 328.891 242.566 327.729 243.728C325.018 246.245 318.918 248.827 315.367 249.408C313.108 249.731 312.462 249.602 311.3 248.44Z" fill="white"/>
<path fill-rule="evenodd" clip-rule="evenodd" d="M319.559 131.553C319.559 174.883 299.063 222.254 272.611 242.485C259.991 252.138 243.498 263.825 229.136 268.34C208.089 274.958 174.75 274.086 174.75 274.086C174.75 274.086 208.762 269.539 221.366 264.467C257.51 249.921 277.24 227.593 289.423 206.169C313.472 163.88 319.559 130.5 319.559 131.553Z" fill="#BFBFBF"/>
<path fill-rule="evenodd" clip-rule="evenodd" d="M294.963 243.925C293.284 243.344 291.477 242.053 290.315 240.568L288.378 238.179L295.221 231.401C305.744 221.072 313.813 210.485 320.785 197.897C323.109 193.701 328.983 179.693 328.983 178.337C328.983 177.885 329.694 176.077 330.533 174.205C331.824 171.494 332.792 170.461 335.568 168.912C338.86 166.975 342.605 166.33 344.218 167.427C347.317 169.493 347.317 176.013 344.218 187.245C340.797 199.576 336.214 208.42 326.724 221.137C325.239 223.074 322.463 226.882 320.462 229.529C315.104 236.63 311.618 240.052 306.906 242.698C302.258 245.281 299.546 245.603 294.963 243.925Z" fill="white"/>
</svg>
