<svg width="14" height="14" viewBox="0 0 14 14" fill="none" xmlns="http://www.w3.org/2000/svg">
<mask id="mask0_6_138" style="mask-type:alpha" maskUnits="userSpaceOnUse" x="0" y="0" width="14" height="14">
<path fill-rule="evenodd" clip-rule="evenodd" d="M6.85414 2.625C6.80105 2.625 6.67039 2.63958 6.60097 2.77842L5.5358 4.90817C5.36722 5.24475 5.0423 5.47867 4.66664 5.53233L2.28197 5.87592C2.12447 5.89867 2.0708 6.01533 2.05447 6.06433C2.03989 6.11158 2.01655 6.23175 2.12505 6.33558L3.84939 7.99225C4.12414 8.2565 4.24897 8.63742 4.18364 9.01017L3.77764 11.3493C3.75255 11.4957 3.84414 11.5809 3.88497 11.6101C3.92814 11.6427 4.04364 11.7075 4.18655 11.6328L6.31864 10.5274C6.65464 10.3542 7.0548 10.3542 7.38964 10.5274L9.52114 11.6322C9.66464 11.7063 9.78014 11.6416 9.82389 11.6101C9.86472 11.5809 9.9563 11.4957 9.93122 11.3493L9.52405 9.01017C9.45872 8.63742 9.58355 8.2565 9.8583 7.99225L11.5826 6.33558C11.6917 6.23175 11.6684 6.111 11.6532 6.06433C11.6375 6.01533 11.5838 5.89867 11.4263 5.87592L9.04164 5.53233C8.66655 5.47867 8.34164 5.24475 8.17305 4.90758L7.10672 2.77842C7.03789 2.63958 6.90722 2.625 6.85414 2.625ZM4.05239 12.5417C3.81147 12.5417 3.5723 12.4658 3.36755 12.3165C3.01405 12.0575 2.8408 11.6299 2.91605 11.1994L3.32205 8.86025C3.33722 8.77333 3.30747 8.68525 3.2433 8.62342L1.51897 6.96675C1.20164 6.66283 1.08789 6.21367 1.22205 5.79658C1.35739 5.37483 1.71555 5.07325 2.15714 5.01025L4.5418 4.66667C4.63397 4.65383 4.7133 4.59725 4.75297 4.51675L5.81872 2.38642C6.0153 1.99383 6.41197 1.75 6.85414 1.75C7.2963 1.75 7.69297 1.99383 7.88955 2.38642L8.95589 4.51617C8.99614 4.59725 9.07489 4.65383 9.16647 4.66667L11.5511 5.01025C11.9927 5.07325 12.3509 5.37483 12.4862 5.79658C12.6204 6.21367 12.5061 6.66283 12.1887 6.96675L10.4644 8.62342C10.4002 8.68525 10.3711 8.77333 10.3862 8.85967L10.7928 11.1994C10.8675 11.6305 10.6942 12.0581 10.3401 12.3165C9.98139 12.5796 9.51414 12.6152 9.11805 12.4087L6.98714 11.3044C6.90372 11.2612 6.80397 11.2612 6.72055 11.3044L4.58964 12.4093C4.4193 12.4979 4.23555 12.5417 4.05239 12.5417Z" fill="black"/>
</mask>
<g mask="url(#mask0_6_138)">
<rect x="-12" y="-6" width="26" height="23" fill="#FAFAFA"/>
</g>
</svg>
